<mxfile host="app.diagrams.net" modified="2023-10-11T06:39:45.547Z" agent="Mozilla/5.0 (Windows NT 10.0; Win64; x64) AppleWebKit/537.36 (KHTML, like Gecko) Chrome/117.0.0.0 Safari/537.36" etag="sZgUN9bZn6YTrhdbO6Ch" version="22.0.4" type="github">
  <diagram name="Page-1" id="TwmBrcy-qxB4-ctyYDsR">
    <mxGraphModel dx="1050" dy="566" grid="1" gridSize="10" guides="1" tooltips="1" connect="1" arrows="1" fold="1" page="1" pageScale="1" pageWidth="1200" pageHeight="1920" math="0" shadow="0">
      <root>
        <mxCell id="0" />
        <mxCell id="1" parent="0" />
        <mxCell id="T3awYQHl3I3derz59_TP-3" value="Выбор приза &quot;Монеты&quot;" style="rounded=0;whiteSpace=wrap;html=1;" vertex="1" parent="1">
          <mxGeometry x="800" y="40" width="120" height="60" as="geometry" />
        </mxCell>
        <mxCell id="T3awYQHl3I3derz59_TP-7" value="" style="edgeStyle=orthogonalEdgeStyle;rounded=0;orthogonalLoop=1;jettySize=auto;html=1;" edge="1" parent="1" source="T3awYQHl3I3derz59_TP-5" target="T3awYQHl3I3derz59_TP-6">
          <mxGeometry relative="1" as="geometry" />
        </mxCell>
        <mxCell id="T3awYQHl3I3derz59_TP-5" value="Создание приза &quot;Монеты&quot;" style="rounded=0;whiteSpace=wrap;html=1;" vertex="1" parent="1">
          <mxGeometry x="360" y="40" width="120" height="60" as="geometry" />
        </mxCell>
        <mxCell id="T3awYQHl3I3derz59_TP-6" value="" style="whiteSpace=wrap;html=1;rounded=0;" vertex="1" parent="1">
          <mxGeometry x="360" y="180" width="120" height="60" as="geometry" />
        </mxCell>
      </root>
    </mxGraphModel>
  </diagram>
</mxfile>
